<?xml version="1.0" standalone="no"?>
<!DOCTYPE svg PUBLIC "-//W3C//DTD SVG 1.1//EN" "http://www.w3.org/Graphics/SVG/1.1/DTD/svg11.dtd" >
<svg xmlns="http://www.w3.org/2000/svg" xmlns:xlink="http://www.w3.org/1999/xlink" version="1.1">
<metadata></metadata>
<defs>
<font id="pkmn_pinballregular" horiz-adv-x="1894" >
<font-face units-per-em="2048" ascent="1638" descent="-410" />
<missing-glyph horiz-adv-x="614" />
<glyph horiz-adv-x="0" />
<glyph horiz-adv-x="682" />
<glyph unicode=" "  horiz-adv-x="614" />
<glyph unicode="&#x09;" horiz-adv-x="614" />
<glyph unicode="&#xa0;" horiz-adv-x="614" />
<glyph unicode="!" horiz-adv-x="870" d="M0 0v512h512v-512h-512zM0 768v1792h512v-1792h-512z" />
<glyph unicode="&#x22;" horiz-adv-x="1638" d="M0 2048v768h512v-512h-256v-256h-256zM768 2048v768h512v-512h-256v-256h-256z" />
<glyph unicode="&#x26;" d="M0 256v768h256v512h-256v768h256v256h768v-256h256v-768h-256v-256h512v-512h-256v-256h256v-512h-1280v256h-256zM512 512h256v512h-256v-512zM512 1792h256v256h-256v-256z" />
<glyph unicode="'" horiz-adv-x="870" d="M0 2048v768h512v-512h-256v-256h-256z" />
<glyph unicode="*" d="M0 0v256h256v-256h-256zM0 768v256h512v256h512v-256h512v-256h-512v-256h-512v256h-512zM0 1536v256h256v-256h-256zM256 256v256h256v-256h-256zM256 1280v256h256v-256h-256zM1024 256v256h256v-256h-256zM1024 1280v256h256v-256h-256zM1280 0v256h256v-256h-256z M1280 1536v256h256v-256h-256z" />
<glyph unicode="," horiz-adv-x="870" d="M0 -256h256v-256h-256v256zM256 0h256v-256h-256v256z" />
<glyph unicode="-" horiz-adv-x="1382" d="M0 1024v512h1024v-512h-1024z" />
<glyph unicode="." horiz-adv-x="870" d="M0 0v512h512v-512h-512z" />
<glyph unicode="/" d="M0 0v512h256v512h256v512h256v512h256v512h512v-512h-256v-512h-256v-512h-256v-512h-256v-512h-512z" />
<glyph unicode="0" d="M0 256v2048h256v256h1024v-256h256v-2048h-256v-256h-1024v256h-256zM512 512h512v768h-256v256h256v512h-512v-768h256v-256h-256v-512z" />
<glyph unicode="1" horiz-adv-x="1126" d="M0 2048v512h768v-2560h-512v2048h-256z" />
<glyph unicode="2" d="M0 0v1280h256v256h768v512h-1024v512h1280v-256h256v-1024h-256v-256h-768v-512h1024v-512h-1536z" />
<glyph unicode="3" d="M0 0v512h1024v512h-768v512h768v512h-1024v512h1280v-256h256v-2048h-256v-256h-1280z" />
<glyph unicode="4" d="M0 1024v1536h512v-1280h512v1280h512v-2560h-512v768h-768v256h-256z" />
<glyph unicode="5" d="M0 0v512h1024v512h-1024v1536h1536v-512h-1024v-512h768v-256h256v-1024h-256v-256h-1280z" />
<glyph unicode="6" d="M0 256v2048h256v256h1280v-512h-1024v-512h768v-256h256v-1024h-256v-256h-1024v256h-256zM512 512h512v512h-512v-512z" />
<glyph unicode="7" d="M0 2048v512h1536v-1024h-256v-256h-256v-1280h-512v1536h256v256h256v256h-1024z" />
<glyph unicode="8" d="M0 256v2048h256v256h1024v-256h256v-2048h-256v-256h-1024v256h-256zM512 512h512v512h-512v-512zM512 1536h512v512h-512v-512z" />
<glyph unicode="9" d="M0 0v512h1024v512h-768v256h-256v1024h256v256h1024v-256h256v-2048h-256v-256h-1280zM512 1536h512v512h-512v-512z" />
<glyph unicode="?" d="M0 1792v512h256v256h1024v-256h256v-1024h-256v-256h-256v-256h-512v512h256v256h256v512h-512v-256h-512zM512 0v512h512v-512h-512z" />
<glyph unicode="A" horiz-adv-x="2406" d="M0 -256v2816h256v256h1536v-256h256v-2816h-2048zM256 0h512v1024h512v-1024h512v2304h-256v256h-1024v-256h-256v-2304zM768 1536v512h512v-512h-512z" />
<glyph unicode="B" horiz-adv-x="2406" d="M0 -256v3072h1792v-256h256v-2560h-256v-256h-1792zM256 0h1280v256h256v768h-256v512h256v768h-256v256h-1280v-2560zM768 512v512h512v-512h-512zM768 1536v512h512v-512h-512z" />
<glyph unicode="C" horiz-adv-x="2406" d="M0 0v2560h256v256h1792v-1024h-1024v-1024h1024v-1024h-1792v256h-256zM256 256h256v-256h1280v512h-1024v1536h1024v512h-1280v-256h-256v-2048z" />
<glyph unicode="D" horiz-adv-x="2406" d="M0 -256v3072h1792v-256h256v-2560h-256v-256h-1792zM256 0h1280v256h256v2048h-256v256h-1280v-2560zM768 512v1536h512v-1536h-512z" />
<glyph unicode="E" horiz-adv-x="2406" d="M0 -256v3072h2048v-1024h-256v-1024h256v-1024h-2048zM256 0h1536v512h-1024v512h768v512h-768v512h1024v512h-1536v-2560z" />
<glyph unicode="F" horiz-adv-x="2406" d="M0 -256v3072h2048v-1024h-256v-1024h-768v-1024h-1024zM256 0h512v1024h768v512h-768v512h1024v512h-1536v-2560z" />
<glyph unicode="G" horiz-adv-x="2406" d="M0 0v2560h256v256h1792v-2816h-256v-256h-1536v256h-256zM256 256h256v-256h1024v256h256v1280h-768v-512h256v-512h-512v1536h1024v512h-1280v-256h-256v-2048z" />
<glyph unicode="H" horiz-adv-x="2406" d="M0 -256v3072h2048v-3072h-2048zM256 0h512v1024h512v-1024h512v2560h-512v-1024h-512v1024h-512v-2560z" />
<glyph unicode="I" horiz-adv-x="1382" d="M0 -256v3072h1024v-3072h-1024zM256 0h512v2560h-512v-2560z" />
<glyph unicode="J" horiz-adv-x="2406" d="M0 0v1024h1024v1792h1024v-2816h-256v-256h-1536v256h-256zM256 256h256v-256h1024v256h256v2304h-512v-2048h-512v256h-512v-512z" />
<glyph unicode="K" horiz-adv-x="2406" d="M0 -256v3072h2048v-1024h-256v-1024h256v-1024h-2048zM256 0h512v1024h256v-512h256v-512h512v512h-256v512h-256v512h256v512h256v512h-512v-512h-256v-512h-256v1024h-512v-2560z" />
<glyph unicode="L" horiz-adv-x="2406" d="M0 -256v3072h1024v-2048h1024v-1024h-2048zM256 0h1536v512h-1024v2048h-512v-2560z" />
<glyph unicode="M" horiz-adv-x="2406" d="M0 -256v3072h768v-256h512v256h768v-3072h-2048zM256 0h512v1280h512v-1280h512v2560h-256v-256h-256v-256h-512v256h-256v256h-256v-2560z" />
<glyph unicode="N" horiz-adv-x="2406" d="M0 -256v3072h768v-256h256v256h1024v-3072h-2048zM256 0h512v1280h256v-256h256v-1024h512v2560h-512v-768h-256v256h-256v256h-256v256h-256v-2560z" />
<glyph unicode="O" horiz-adv-x="2406" d="M0 0v2560h256v256h1536v-256h256v-2560h-256v-256h-1536v256h-256zM256 256h256v-256h1024v256h256v2048h-256v256h-1024v-256h-256v-2048zM768 512v1536h512v-1536h-512z" />
<glyph unicode="P" horiz-adv-x="2406" d="M0 -256v3072h1792v-256h256v-1536h-256v-256h-768v-1024h-1024zM256 0h512v1024h768v256h256v1024h-256v256h-1280v-2560zM768 1536v512h512v-512h-512z" />
<glyph unicode="Q" horiz-adv-x="2406" d="M0 0v2560h256v256h1536v-256h256v-2816h-1792v256h-256zM256 256h256v-256h1280v2304h-256v256h-1024v-256h-256v-2048zM768 512v256h512v-256h-512zM768 1280v768h512v-768h-512z" />
<glyph unicode="R" horiz-adv-x="2406" d="M0 -256v3072h1792v-256h256v-2816h-2048zM256 0h512v1024h512v-1024h512v1024h-256v512h256v768h-256v256h-1280v-2560zM768 1536v512h512v-512h-512z" />
<glyph unicode="S" horiz-adv-x="2406" d="M0 -256v1024h256v256h-256v1536h256v256h1792v-1024h-256v-256h256v-1536h-256v-256h-1792zM256 0h1280v256h256v1024h-256v256h-768v512h1024v512h-1280v-256h-256v-1024h256v-256h768v-512h-1024v-512z" />
<glyph unicode="T" horiz-adv-x="2406" d="M0 1792v1024h2048v-1024h-512v-2048h-1024v2048h-512zM256 2048h512v-2048h512v2048h512v512h-1536v-512z" />
<glyph unicode="U" horiz-adv-x="2406" d="M0 0v2816h2048v-2816h-256v-256h-1536v256h-256zM256 256h256v-256h1024v256h256v2304h-512v-2048h-512v2048h-512v-2304z" />
<glyph unicode="V" horiz-adv-x="2406" d="M0 256v2560h2048v-2560h-256v-256h-256v-256h-1024v256h-256v256h-256zM256 512h256v-256h256v-256h512v256h256v256h256v2048h-512v-2048h-512v2048h-512v-2048z" />
<glyph unicode="W" horiz-adv-x="2406" d="M0 -256v3072h2048v-3072h-768v256h-512v-256h-768zM256 0h256v256h256v256h512v-256h256v-256h256v2560h-512v-1280h-512v1280h-512v-2560z" />
<glyph unicode="X" horiz-adv-x="2406" d="M0 -256v3072h2048v-3072h-2048zM256 0h512v1024h512v-1024h512v1024h-256v512h256v1024h-512v-1024h-512v1024h-512v-1024h256v-512h-256v-1024z" />
<glyph unicode="Y" horiz-adv-x="2406" d="M0 1024v1792h2048v-1792h-256v-256h-256v-1024h-1024v1024h-256v256h-256zM256 1280h256v-256h256v-1024h512v1024h256v256h256v1280h-512v-1024h-512v1024h-512v-1280z" />
<glyph unicode="Z" horiz-adv-x="2406" d="M0 -256v1024h256v512h256v512h-512v1024h2048v-1024h-256v-512h-256v-512h512v-1024h-2048zM256 0h1536v512h-768v512h256v512h256v512h256v512h-1536v-512h768v-512h-256v-512h-256v-512h-256v-512z" />
<glyph unicode="a" d="M0 0v2304h256v256h1024v-256h256v-2304h-512v1024h-512v-1024h-512zM512 1536h512v512h-512v-512z" />
<glyph unicode="b" d="M0 0v2560h1280v-256h256v-768h-256v-512h256v-768h-256v-256h-1280zM512 512h512v512h-512v-512zM512 1536h512v512h-512v-512z" />
<glyph unicode="c" d="M0 256v2048h256v256h1280v-512h-1024v-1536h1024v-512h-1280v256h-256z" />
<glyph unicode="d" d="M0 0v2560h1280v-256h256v-2048h-256v-256h-1280zM512 512h512v1536h-512v-1536z" />
<glyph unicode="e" d="M0 0v2560h1536v-512h-1024v-512h768v-512h-768v-512h1024v-512h-1536z" />
<glyph unicode="f" d="M0 0v2560h1536v-512h-1024v-512h768v-512h-768v-1024h-512z" />
<glyph unicode="g" d="M0 256v2048h256v256h1280v-512h-1024v-1536h512v512h-256v512h768v-1280h-256v-256h-1024v256h-256z" />
<glyph unicode="h" d="M0 0v2560h512v-1024h512v1024h512v-2560h-512v1024h-512v-1024h-512z" />
<glyph unicode="i" horiz-adv-x="870" d="M0 0v2560h512v-2560h-512z" />
<glyph unicode="j" d="M0 256v512h512v-256h512v2048h512v-2304h-256v-256h-1024v256h-256z" />
<glyph unicode="k" d="M0 0v2560h512v-1024h256v512h256v512h512v-512h-256v-512h-256v-512h256v-512h256v-512h-512v512h-256v512h-256v-1024h-512z" />
<glyph unicode="l" d="M0 0v2560h512v-2048h1024v-512h-1536z" />
<glyph unicode="m" d="M0 0v2560h256v-256h256v-256h512v256h256v256h256v-2560h-512v1280h-512v-1280h-512z" />
<glyph unicode="n" d="M0 0v2560h256v-256h256v-256h256v-256h256v768h512v-2560h-512v1024h-256v256h-256v-1280h-512z" />
<glyph unicode="o" d="M0 256v2048h256v256h1024v-256h256v-2048h-256v-256h-1024v256h-256zM512 512h512v1536h-512v-1536z" />
<glyph unicode="p" d="M0 0v2560h1280v-256h256v-1024h-256v-256h-768v-1024h-512zM512 1536h512v512h-512v-512z" />
<glyph unicode="q" d="M0 256v2048h256v256h1024v-256h256v-2304h-1280v256h-256zM512 512h512v256h-512v-256zM512 1280h512v768h-512v-768z" />
<glyph unicode="r" d="M0 0v2560h1280v-256h256v-1024h-256v-256h256v-1024h-512v1024h-512v-1024h-512zM512 1536h512v512h-512v-512z" />
<glyph unicode="s" d="M0 0v512h1024v512h-768v256h-256v1024h256v256h1280v-512h-1024v-512h768v-256h256v-1024h-256v-256h-1280z" />
<glyph unicode="t" d="M0 2048v512h1536v-512h-512v-2048h-512v2048h-512z" />
<glyph unicode="u" d="M0 256v2304h512v-2048h512v2048h512v-2304h-256v-256h-1024v256h-256z" />
<glyph unicode="v" d="M0 512v2048h512v-2048h512v2048h512v-2048h-256v-256h-256v-256h-512v256h-256v256h-256z" />
<glyph unicode="w" d="M0 0v2560h512v-1280h512v1280h512v-2560h-256v256h-256v256h-512v-256h-256v-256h-256z" />
<glyph unicode="x" d="M0 0v1024h256v512h-256v1024h512v-1024h512v1024h512v-1024h-256v-512h256v-1024h-512v1024h-512v-1024h-512z" />
<glyph unicode="y" d="M0 1280v1280h512v-1024h512v1024h512v-1280h-256v-256h-256v-1024h-512v1024h-256v256h-256z" />
<glyph unicode="z" d="M0 0v512h256v512h256v512h256v512h-768v512h1536v-512h-256v-512h-256v-512h-256v-512h768v-512h-1536z" />
<glyph unicode="&#xad;" horiz-adv-x="1382" d="M0 1024v512h1024v-512h-1024z" />
<glyph unicode="&#x2000;" horiz-adv-x="1408" />
<glyph unicode="&#x2001;" horiz-adv-x="2816" />
<glyph unicode="&#x2002;" horiz-adv-x="1408" />
<glyph unicode="&#x2003;" horiz-adv-x="2816" />
<glyph unicode="&#x2004;" horiz-adv-x="938" />
<glyph unicode="&#x2005;" horiz-adv-x="704" />
<glyph unicode="&#x2006;" horiz-adv-x="469" />
<glyph unicode="&#x2007;" horiz-adv-x="469" />
<glyph unicode="&#x2008;" horiz-adv-x="352" />
<glyph unicode="&#x2009;" horiz-adv-x="563" />
<glyph unicode="&#x200a;" horiz-adv-x="156" />
<glyph unicode="&#x2010;" horiz-adv-x="1382" d="M0 1024v512h1024v-512h-1024z" />
<glyph unicode="&#x2011;" horiz-adv-x="1382" d="M0 1024v512h1024v-512h-1024z" />
<glyph unicode="&#x2012;" horiz-adv-x="1382" d="M0 1024v512h1024v-512h-1024z" />
<glyph unicode="&#x2013;" horiz-adv-x="1382" d="M0 1024v512h1024v-512h-1024z" />
<glyph unicode="&#x2014;" horiz-adv-x="2406" d="M0 1024v512h2048v-512h-2048z" />
<glyph unicode="&#x2018;" horiz-adv-x="870" d="M0 2048v768h512v-512h-256v-256h-256z" />
<glyph unicode="&#x2019;" horiz-adv-x="870" d="M0 2048v768h512v-512h-256v-256h-256z" />
<glyph unicode="&#x201c;" horiz-adv-x="1638" d="M0 2048v768h512v-512h-256v-256h-256zM768 2048v768h512v-512h-256v-256h-256z" />
<glyph unicode="&#x201d;" horiz-adv-x="1638" d="M0 2048v768h512v-512h-256v-256h-256zM768 2048v768h512v-512h-256v-256h-256z" />
<glyph unicode="&#x202f;" horiz-adv-x="563" />
<glyph unicode="&#x205f;" horiz-adv-x="704" />
<glyph unicode="&#x25fc;" horiz-adv-x="2560" d="M0 0v2560h2560v-2560h-2560z" />
</font>
</defs>
</svg>
