<?xml version="1.0" encoding="utf-8"?>
<!-- Generator: Adobe Illustrator 21.0.2, SVG Export Plug-In . SVG Version: 6.00 Build 0)  -->
<svg version="1.1" id="Layer_1" xmlns="http://www.w3.org/2000/svg" xmlns:xlink="http://www.w3.org/1999/xlink" x="0px" y="0px"
	 viewBox="0 0 92 33" style="enable-background:new 0 0 92 33;" xml:space="preserve">
<path d="M13.3,9.9H9.9V6.6H6.6V3.3H3.3V0H0v33h6.6V16.5h3.3v3.3h3.3V33h6.6V0h-6.6V9.9z M24.3,33h19.9v-6.6H30.9v-6.6h9.9v-6.6h-9.9
	V6.6h13.3V0H24.3V33z M61.9,13.2h-6.6V0h-6.6v13.2h3.3v6.6h-3.3V33h6.6V19.8h6.6V33h6.6V19.8h-3.3v-6.6h3.3V0h-6.6V13.2z M72.1,0
	v6.6h6.6V33h6.6V6.6H92V0H72.1z"/>
</svg>
