<?xml version="1.0" encoding="utf-8"?>
<!-- Generator: Adobe Illustrator 21.0.2, SVG Export Plug-In . SVG Version: 6.00 Build 0)  -->
<svg version="1.1" id="Layer_1" xmlns="http://www.w3.org/2000/svg" xmlns:xlink="http://www.w3.org/1999/xlink" x="0px" y="0px"
	 viewBox="0 0 22 27.4" style="enable-background:new 0 0 22 27.4;" xml:space="preserve">
<style type="text/css">
	.st0{fill:#FFFFFF;}
</style>
<path class="st0" d="M12.4,3.6V0.8c0-0.6-0.7-1-1.2-0.7L1,6.1C0.4,6.4,0.4,7.2,1,7.5l10.2,6c0.5,0.3,1.2-0.1,1.2-0.7v-2.6
	c0-0.4,0.4-0.8,0.8-0.8h2.5c0.4,0,0.8,0.4,0.8,0.8v11c0,0.4-0.4,0.8-0.8,0.8H6.3c-0.4,0-0.8-0.4-0.8-0.8l0-3.7
	c0-0.3-0.1-0.6-0.4-0.7l-3.9-2.3C0.7,14.1,0,14.5,0,15.1l0,11.5c0,0.4,0.4,0.8,0.8,0.8h4.7l0,0h15.7c0.4,0,0.8-0.4,0.8-0.8V5.2
	c0-0.4-0.4-0.8-0.8-0.8h-8C12.7,4.4,12.4,4.1,12.4,3.6z"/>
</svg>
