<?xml version="1.0" encoding="utf-8"?>
<!-- Generator: Adobe Illustrator 21.0.2, SVG Export Plug-In . SVG Version: 6.00 Build 0)  -->
<svg version="1.1" id="Layer_1" xmlns="http://www.w3.org/2000/svg" xmlns:xlink="http://www.w3.org/1999/xlink" x="0px" y="0px"
	 viewBox="0 0 42 42" style="enable-background:new 0 0 42 42;" xml:space="preserve">
<style type="text/css">
	.st0{fill-rule:evenodd;clip-rule:evenodd;}
</style>
<path class="st0" d="M33.3,6.6H8.7c-1.1,0-2.1,0.9-2.1,2.1v24.7c0,1.1,0.9,2.1,2.1,2.1h24.7c1.1,0,2.1-0.9,2.1-2.1V8.7
	C35.4,7.5,34.5,6.6,33.3,6.6z M31.3,31.3H10.7V10.7h20.6V31.3z M18.3,24.4h5.5c0.4,0,0.7-0.3,0.7-0.7v-5.5c0-0.4-0.3-0.7-0.7-0.7
	h-5.5c-0.4,0-0.7,0.3-0.7,0.7v5.5C17.6,24.1,17.9,24.4,18.3,24.4z"/>
</svg>
