<?xml version="1.0" encoding="utf-8"?>
<!-- Generator: Adobe Illustrator 21.0.2, SVG Export Plug-In . SVG Version: 6.00 Build 0)  -->
<svg version="1.1" id="Layer_1" xmlns="http://www.w3.org/2000/svg" xmlns:xlink="http://www.w3.org/1999/xlink" x="0px" y="0px"
	 viewBox="0 0 416.2 106.2" style="enable-background:new 0 0 416.2 106.2;" xml:space="preserve">
<g>
	<path d="M416.2,38.7V0h-67.8v9.7h-7.7V0H302v9.7h-7.7V0H0v38.7h19.4v67.4H29V29H9.7V9.7h58.1V29H48.4v77.1h9.7V38.7h17.4v67.4h9.7
		V9.7h58.1V29h-38.7v19.4h29v19.4h-29v19.4h38.7v19h9.7V77.4h-9.7V38.7h27.1v67.4h9.7V29h-19.4V9.7h58.1V29h-19.4v77.1h9.7V38.7
		h17.4v67.4h9.7V9.7h48.4v9.7h9.7v29h-9.7v19.4h9.7v38.4h17.4V9.7H331v96.5h17.4v-19h38.7V67.8h-29v-9.7h-9.7V19.4h9.7V9.7h48.4V29
		h-38.7v19.4h29v9.7h9.7v38.7h-9.7v9.4h9.7h9.7V48.4h-9.7v-9.7H416.2z M348.4,77.4h-7.7v-9.7h7.7V77.4z"/>
	<rect x="255.5" y="67.8" width="19.4" height="38.4"/>
	<rect x="255.5" y="29" width="19.4" height="19.4"/>
</g>
</svg>
